<?xml version="1.0" encoding="UTF-8"?>
<svg version="1.1" xmlns="http://www.w3.org/2000/svg" width="2000" height="252">
<path d="M0 0 C1.2410308 -0.00694553 2.4820616 -0.01389106 3.76069939 -0.02104706 C7.19388951 -0.03615199 10.62621102 -0.03338058 14.0593617 -0.02289402 C17.76636825 -0.01589314 21.47328679 -0.03190674 25.18026733 -0.04489136 C32.43817707 -0.06652251 39.69592997 -0.06640664 46.95386134 -0.05826581 C52.85418595 -0.05196288 58.75446485 -0.05310554 64.65478897 -0.05953789 C65.91503329 -0.06089037 65.91503329 -0.06089037 67.2007371 -0.06227018 C68.90760279 -0.06412141 70.61446847 -0.06598397 72.32133414 -0.06785773 C88.32429058 -0.08443343 104.32715883 -0.0757193 120.33010997 -0.05887216 C134.96387803 -0.04417872 149.59744071 -0.05879895 164.23118232 -0.08764232 C179.26402477 -0.1170512 194.29677247 -0.12800404 209.32964242 -0.11846012 C211.03079802 -0.11743759 212.73195364 -0.11644298 214.43310928 -0.11547661 C215.68854658 -0.11476202 215.68854658 -0.11476202 216.96934625 -0.114033 C222.85979766 -0.11187066 228.75015919 -0.12166348 234.64059067 -0.13624763 C241.8233049 -0.15378349 249.00575741 -0.15363592 256.18846141 -0.13089598 C259.85146731 -0.1197644 263.51401232 -0.11656596 267.17699814 -0.13519669 C271.15209307 -0.15515423 275.12647016 -0.13619213 279.1015625 -0.11352539 C280.82934931 -0.13127898 280.82934931 -0.13127898 282.5920409 -0.14939123 C291.47020314 -0.04656678 297.6990167 2.29607138 303.99026489 8.6396637 C311.95713252 19.04995452 311.25177663 31.06237479 311.19534302 43.4990387 C311.20077048 45.51234949 311.20789663 47.52565632 311.21658325 49.53895569 C311.23474516 54.98111804 311.22777854 60.42297546 311.21506691 65.86514282 C311.20490222 71.57482187 311.2143422 77.28447575 311.22061157 82.99415588 C311.22787788 92.58046632 311.21832693 102.16665328 311.19924927 111.75294495 C311.17748257 122.81785351 311.18453465 133.8824672 311.20655489 144.94736862 C311.22473783 154.46702972 311.22725305 163.98660232 311.21680021 173.50627518 C311.21058121 179.1833962 311.20968576 184.86037885 311.22294617 190.53749084 C311.23454616 195.87613653 311.22640318 201.21440398 311.20336914 206.55300903 C311.19810419 208.50603611 311.19955765 210.45909531 311.2084198 212.41210938 C311.30969632 237.00881822 311.30969632 237.00881822 302.49054956 245.90196246 C295.2964649 252.30201064 288.49849845 253.24171697 279.11502075 253.15631104 C277.25091128 253.16906931 277.25091128 253.16906931 275.34914303 253.18208534 C271.92029612 253.2004454 268.49281635 253.19655703 265.06403685 253.18294609 C261.35841023 253.1736615 257.65291609 253.19320239 253.94732666 253.20892334 C246.69634732 253.23497003 239.44561626 253.23393441 232.19460797 253.22288515 C226.30004383 253.21431658 220.40555136 253.2151655 214.51098633 253.22268105 C213.67109443 253.22373593 212.83120252 253.22479082 211.96585935 253.22587768 C210.25947672 253.22804866 208.55309411 253.23023544 206.84671152 253.23243783 C190.85708023 253.25185404 174.86758809 253.23988254 158.87796819 253.21765188 C145.16692896 253.19940017 131.45615901 253.21030841 117.74514771 253.24195862 C101.81157217 253.27873741 85.87816477 253.29573751 69.9445467 253.28254634 C68.24454564 253.28120528 66.54454456 253.2798963 64.84454346 253.27861977 C64.00817523 253.2779891 63.17180701 253.27735844 62.3100943 253.27670866 C56.42461441 253.27368421 50.53926162 253.2849292 44.65380859 253.30187035 C37.47841982 253.32221398 30.30341102 253.3212973 23.12804198 253.29323795 C19.46900373 253.27948348 15.81062839 253.27524077 12.15161514 253.29718781 C8.18089657 253.32068946 4.21121807 253.29748825 0.24050903 253.26983643 C-0.9099846 253.28390288 -2.06047823 253.29796933 -3.2458353 253.31246203 C-11.8611215 253.19159644 -17.01890182 250.67990459 -23.17159939 244.72464484 C-29.26952083 238.38952147 -30.77477807 231.14150296 -30.70991516 222.64077759 C-30.7153007 221.78274629 -30.72068624 220.92471498 -30.72623497 220.04068273 C-30.74046793 217.18428617 -30.7334224 214.32835608 -30.72628784 211.47193909 C-30.73199383 209.41641876 -30.73895897 207.36090159 -30.74708557 205.3053894 C-30.76500636 199.73514274 -30.76385063 194.1650537 -30.75814319 188.59478688 C-30.75504991 183.94020247 -30.76114532 179.28564828 -30.76718193 174.63106817 C-30.7812219 163.64863753 -30.77967013 152.66628469 -30.76828003 141.68385315 C-30.75679803 130.36279391 -30.77087719 119.04197154 -30.7976765 107.72094351 C-30.81984358 97.99161808 -30.82646863 88.26236694 -30.82060009 78.53301805 C-30.81723191 72.72623962 -30.81963662 66.91961305 -30.83685112 61.11285591 C-30.8523342 55.65197879 -30.84834931 50.19145225 -30.82954597 44.73058891 C-30.82586397 42.72995444 -30.8289572 40.72929391 -30.83943176 38.72868347 C-30.85266992 35.99056521 -30.84106935 33.25360281 -30.82344055 30.51553345 C-30.83304556 29.73010684 -30.84265056 28.94468022 -30.85254663 28.13545281 C-30.75358137 20.62808061 -28.05190446 13.82195627 -23.00973511 8.2021637 C-22.47735229 7.58728088 -21.94496948 6.97239807 -21.39645386 6.33888245 C-14.49674133 0.27077369 -8.94072157 -0.06371804 0 0 Z M-4.32223511 28.5146637 C-5.38152691 31.6925391 -5.4368245 33.94055313 -5.41989136 37.27638245 C-5.4173938 38.28402649 -5.41489624 39.29167053 -5.412323 40.32984924 C-5.40321899 41.60771301 -5.39411499 42.88557678 -5.38473511 44.2021637 C-5.36411011 48.2652887 -5.34348511 52.3284137 -5.32223511 56.5146637 C5.23776489 56.5146637 15.79776489 56.5146637 26.67776489 56.5146637 C26.67776489 45.9546637 26.67776489 35.3946637 26.67776489 24.5146637 C20.39745239 24.3909137 20.39745239 24.3909137 13.99026489 24.2646637 C12.0224707 24.21003967 12.0224707 24.21003967 10.0149231 24.15431213 C8.4500415 24.13932678 8.4500415 24.13932678 6.85354614 24.1240387 C5.25893555 24.0926178 5.25893555 24.0926178 3.6321106 24.06056213 C-0.06482321 24.62880417 -1.69269027 25.90134152 -4.32223511 28.5146637 Z M52.67776489 24.5146637 C52.67776489 91.8346637 52.67776489 159.1546637 52.67776489 228.5146637 C110.42776489 228.5146637 168.17776489 228.5146637 227.67776489 228.5146637 C227.67776489 161.1946637 227.67776489 93.8746637 227.67776489 24.5146637 C169.92776489 24.5146637 112.17776489 24.5146637 52.67776489 24.5146637 Z M252.67776489 24.5146637 C252.67776489 35.0746637 252.67776489 45.6346637 252.67776489 56.5146637 C263.23776489 56.5146637 273.79776489 56.5146637 284.67776489 56.5146637 C284.78088989 52.1627887 284.88401489 47.8109137 284.99026489 43.3271637 C285.03578491 41.96309387 285.08130493 40.59902405 285.12820435 39.19361877 C285.18446402 34.31064177 285.20943615 30.58803774 283.02151489 26.1709137 C277.4932319 23.4326053 271.92708287 23.99987634 265.86526489 24.2021637 C259.33745239 24.3568512 259.33745239 24.3568512 252.67776489 24.5146637 Z M-5.32223511 81.5146637 C-5.32223511 92.0746637 -5.32223511 102.6346637 -5.32223511 113.5146637 C5.23776489 113.5146637 15.79776489 113.5146637 26.67776489 113.5146637 C26.67776489 102.9546637 26.67776489 92.3946637 26.67776489 81.5146637 C16.11776489 81.5146637 5.55776489 81.5146637 -5.32223511 81.5146637 Z M252.67776489 81.5146637 C252.67776489 92.0746637 252.67776489 102.6346637 252.67776489 113.5146637 C263.23776489 113.5146637 273.79776489 113.5146637 284.67776489 113.5146637 C284.67776489 102.9546637 284.67776489 92.3946637 284.67776489 81.5146637 C274.11776489 81.5146637 263.55776489 81.5146637 252.67776489 81.5146637 Z M-5.32223511 139.5146637 C-5.32223511 150.0746637 -5.32223511 160.6346637 -5.32223511 171.5146637 C5.23776489 171.5146637 15.79776489 171.5146637 26.67776489 171.5146637 C26.67776489 160.9546637 26.67776489 150.3946637 26.67776489 139.5146637 C16.11776489 139.5146637 5.55776489 139.5146637 -5.32223511 139.5146637 Z M252.67776489 139.5146637 C252.67776489 150.0746637 252.67776489 160.6346637 252.67776489 171.5146637 C263.23776489 171.5146637 273.79776489 171.5146637 284.67776489 171.5146637 C284.67776489 160.9546637 284.67776489 150.3946637 284.67776489 139.5146637 C274.11776489 139.5146637 263.55776489 139.5146637 252.67776489 139.5146637 Z M-5.32223511 196.5146637 C-5.38411011 200.5365387 -5.44598511 204.5584137 -5.50973511 208.7021637 C-5.53704712 209.96181946 -5.56435913 211.22147522 -5.59249878 212.51930237 C-5.59999146 213.52195129 -5.60748413 214.52460022 -5.61520386 215.55763245 C-5.63091431 216.57881165 -5.64662476 217.59999084 -5.66281128 218.65211487 C-5.26428445 222.00174001 -4.32052738 223.81783135 -2.32223511 226.5146637 C1.17113307 228.84357581 2.53784354 228.75017512 6.65823364 228.7099762 C7.70648315 228.70498108 8.75473267 228.69998596 9.83474731 228.69483948 C11.16481812 228.67663147 12.49488892 228.65842346 13.86526489 228.6396637 C18.09338989 228.5984137 22.32151489 228.5571637 26.67776489 228.5146637 C26.67776489 217.9546637 26.67776489 207.3946637 26.67776489 196.5146637 C16.11776489 196.5146637 5.55776489 196.5146637 -5.32223511 196.5146637 Z M252.67776489 196.5146637 C252.67776489 207.0746637 252.67776489 217.6346637 252.67776489 228.5146637 C257.02963989 228.6177887 261.38151489 228.7209137 265.86526489 228.8271637 C267.22933472 228.87268372 268.59340454 228.91820374 269.99880981 228.96510315 C274.88178681 229.02136283 278.60439085 229.04633495 283.02151489 226.8584137 C285.75982329 221.33013071 285.19255224 215.76398168 284.99026489 209.7021637 C284.88713989 205.3502887 284.78401489 200.9984137 284.67776489 196.5146637 C274.11776489 196.5146637 263.55776489 196.5146637 252.67776489 196.5146637 Z " fill="#D4A087" transform="translate(33.322235107421875,-0.5146636962890625)"/>
<path d="M0 0 C6.62285631 6.25839095 11.65000572 13.25516253 14.8125 21.8125 C17.3603963 19.36651955 19.70212178 16.80229532 22 14.125 C35.61689117 -1.42890117 49.74472189 -10.78441641 70.6796875 -12.41015625 C85.54530042 -12.87344771 99.49895619 -9.71854878 111 -0.0625 C124.87868158 13.163579 129.21052743 31.10273654 129.92294502 49.69479942 C130.09215448 57.78545475 130.04222806 65.87692273 130.0078125 73.96875 C130.00407518 76.56904999 130.00123161 79.16935141 129.99923706 81.76965332 C129.99242836 87.87133038 129.97672935 93.97292281 129.95653808 100.07456827 C129.93402325 107.03247487 129.92314686 113.99038536 129.91314721 120.94831944 C129.89235745 135.23642524 129.85574472 149.52444492 129.8125 163.8125 C119.5825 163.8125 109.3525 163.8125 98.8125 163.8125 C98.79062622 158.537052 98.79062622 158.537052 98.76831055 153.1550293 C98.71788827 141.51212281 98.65142782 129.86933799 98.57678509 118.22656536 C98.53193496 111.17018318 98.49249588 104.11385025 98.46606445 97.05737305 C98.4405231 90.24266839 98.39954637 83.42819325 98.34931374 76.61362648 C98.33267761 74.01866211 98.32114314 71.42365967 98.31488609 68.82864952 C98.30520991 65.18330372 98.27710713 61.53851736 98.24487305 57.89331055 C98.24630814 56.82947144 98.24774323 55.76563232 98.2492218 54.66955566 C98.10751421 43.2771191 95.03793281 33.8007158 89.1875 24.125 C83.68054345 18.76296336 76.43045352 16.09963917 68.875 15.5 C54.80675501 15.75410623 44.5858925 23.12251146 34.75 32.4375 C33.0957445 34.22139336 31.45103896 36.01415996 29.8125 37.8125 C28.51181076 39.13811447 28.51181076 39.13811447 27.18484497 40.49050903 C17.36262408 51.44739109 18.43587288 63.67290223 18.6171875 77.6796875 C18.61339462 80.17075622 18.60519511 82.66182176 18.59280396 85.15286255 C18.57210662 91.66679662 18.61075205 98.17903947 18.66229248 104.69274902 C18.70434133 111.35642286 18.68953183 118.01981198 18.6796875 124.68359375 C18.6687075 137.72719538 18.72575981 150.76918183 18.8125 163.8125 C8.9125 163.8125 -0.9875 163.8125 -11.1875 163.8125 C-11.20208252 160.36659424 -11.21666504 156.92068848 -11.23168945 153.37036133 C-11.28215635 141.95098557 -11.34862525 130.53173357 -11.42321491 119.11249256 C-11.46802634 112.19293054 -11.50747397 105.27341831 -11.53393555 98.35375977 C-11.55951543 91.66871719 -11.60051742 84.98392763 -11.65068626 78.29901695 C-11.66729703 75.75594559 -11.67884718 73.21283568 -11.68511391 70.66971779 C-11.1235581 45.63516927 -11.1235581 45.63516927 -21.9375 23.8125 C-27.82558641 18.11435186 -33.99704458 16.29337193 -42 15.375 C-52.41198677 15.8798236 -61.26377511 20.35366543 -69.1875 26.8125 C-69.92355469 27.38613281 -70.65960937 27.95976563 -71.41796875 28.55078125 C-78.48346255 34.39075577 -86.05225733 42.54201467 -90.1875 50.8125 C-90.2914533 52.31998269 -90.33399209 53.83190887 -90.34571838 55.34292603 C-90.36040161 56.77324913 -90.36040161 56.77324913 -90.37538147 58.23246765 C-90.38113693 59.28191055 -90.3868924 60.33135345 -90.39282227 61.41259766 C-90.40767166 63.06626595 -90.40767166 63.06626595 -90.42282104 64.75334167 C-90.45450383 68.41105982 -90.47922027 72.06879098 -90.50390625 75.7265625 C-90.52446992 78.25719548 -90.54546623 80.78782499 -90.56687927 83.31845093 C-90.61650489 89.30720218 -90.66175446 95.29597116 -90.70490164 101.28477132 C-90.75426118 108.10213211 -90.80918405 114.91944449 -90.86458123 121.73675847 C-90.97842437 135.76196227 -91.08452383 149.78721242 -91.1875 163.8125 C-101.0875 163.8125 -110.9875 163.8125 -121.1875 163.8125 C-121.1875 107.0525 -121.1875 50.2925 -121.1875 -8.1875 C-111.6175 -8.1875 -102.0475 -8.1875 -92.1875 -8.1875 C-91.8575 0.3925 -91.5275 8.9725 -91.1875 17.8125 C-89.99125 16.224375 -88.795 14.63625 -87.5625 13 C-76.64668357 -0.30150587 -61.90865951 -10.21850074 -44.4609375 -12.0234375 C-28.11620733 -13.20295411 -12.72764799 -10.83570032 0 0 Z " fill="#CF754F" transform="translate(1184.1875,82.1875)"/>
<path d="M0 0 C10.23 0 20.46 0 31 0 C31.33 31.68 31.66 63.36 32 96 C35.63 92.04 39.26 88.08 43 84 C46.36756511 81.3571008 49.36947663 79.14856467 53 77 C53.90105469 76.45601563 54.80210938 75.91203125 55.73046875 75.3515625 C71.70998134 66.50999683 90.65682773 66.11686433 108.11035156 70.45654297 C120.5461646 74.03304424 129.89224816 82.03864947 136.43359375 93.01171875 C143.16266843 105.84898092 145.31922118 118.27585853 145.22705078 132.6315918 C145.22734283 133.84264084 145.22763489 135.05368988 145.22793579 136.30143738 C145.22679044 139.58587534 145.21683824 142.87013744 145.20278788 146.15454078 C145.19018946 149.6004812 145.1891029 153.04642596 145.18673706 156.49238586 C145.18054883 163.00150696 145.16417444 169.51055997 145.14403808 176.01965123 C145.1215958 183.43692607 145.11066482 190.85420436 145.10064721 198.27150476 C145.07980548 213.51438252 145.04316296 228.75716662 145 244 C135.1 244 125.2 244 115 244 C114.98541748 240.69097656 114.97083496 237.38195312 114.95581055 233.97265625 C114.90527012 222.98835723 114.83864157 212.00419709 114.76428509 201.02003479 C114.71972918 194.36622595 114.68044107 187.71250465 114.65356445 181.05859375 C114.62738342 174.62641185 114.58687788 168.19445942 114.53681374 161.76242065 C114.52024457 159.31951776 114.50866882 156.87657527 114.50238609 154.43362427 C114.88844132 129.62647634 114.88844132 129.62647634 106 107 C105.55333984 105.95585937 105.55333984 105.95585937 105.09765625 104.890625 C103.71415937 102.5076624 102.5162157 102.04263081 100 101 C99.35160156 100.65839844 98.70320313 100.31679687 98.03515625 99.96484375 C88.56162423 95.03110331 79.94494179 94.94915186 69.75390625 98.0390625 C60.9920229 101.09640052 54.85515199 105.5613933 48.25 111.98828125 C46 114 46 114 44 114 C43.7525 114.56589844 43.505 115.13179688 43.25 115.71484375 C41.79764463 118.36993091 40.04815279 120.33739284 38 122.5625 C33.05023805 127.83465608 33.05023805 127.83465608 31.7215271 134.68864441 C31.71036362 135.65198196 31.69920013 136.61531952 31.68769836 137.60784912 C31.68553818 138.66304749 31.68337799 139.71824585 31.68115234 140.80541992 C31.67110672 141.91776505 31.6610611 143.03011017 31.65071106 144.17616272 C31.61976599 147.86092603 31.60281232 151.54561632 31.5859375 155.23046875 C31.56723498 157.78209568 31.54766227 160.33371636 31.5272522 162.8853302 C31.48108722 168.92008668 31.4437138 174.95483598 31.41057932 180.98967296 C31.37236689 187.86028682 31.32295446 194.7308058 31.27259517 201.6013397 C31.16925635 215.73416326 31.08148092 229.86703438 31 244 C20.77 244 10.54 244 0 244 C0 163.48 0 82.96 0 0 Z " fill="#CF754F" transform="translate(1852,2)"/>
<path d="M0 0 C0.33 -3.96 0.66 -7.92 1 -12 C10.24 -12 19.48 -12 29 -12 C29.02187378 -5.77648682 29.02187378 -5.77648682 29.04418945 0.57275391 C29.09449526 14.27125453 29.16093281 27.9696369 29.23571491 41.66802406 C29.28066658 49.97447058 29.32008268 58.28087428 29.34643555 66.58740234 C29.36942074 73.82798966 29.40282455 81.06844142 29.44870156 88.30892122 C29.47262684 92.142162 29.49136013 95.97526858 29.49761391 99.80858231 C29.50366798 103.41852994 29.52367907 107.02813425 29.55427551 110.63795471 C29.5672267 112.59053553 29.56548668 114.54319657 29.5632782 116.49581909 C29.54490926 124.70770547 29.54490926 124.70770547 33 132 C37.82515542 135.40599206 42.25329342 136.79016703 48 138 C46.74110216 146.26565816 44.60049705 154.05964735 42 162 C30.99416274 162.64740219 20.45984873 160.29768769 12 153 C7.62759416 148.81978783 5.0786887 144.65865258 3 139 C2.29230469 139.72316406 1.58460938 140.44632813 0.85546875 141.19140625 C-14.11572695 156.14155282 -29.21490269 164.28610847 -50.5 164.5 C-69.78330179 164.28937719 -86.56454675 157.97627386 -101 145 C-101.61101562 144.48179687 -102.22203125 143.96359375 -102.8515625 143.4296875 C-119.32849166 128.45750073 -126.88465145 104.33342595 -128.12646484 82.80786133 C-129.10917995 54.92566743 -122.6030318 29.28664657 -103.49609375 8.2421875 C-75.700827 -20.77875958 -31.96179314 -23.85704715 0 0 Z M-81 27 C-93.93573589 42.66863784 -98.14861894 62.05357906 -96.78515625 81.99609375 C-94.84734074 99.7317195 -87.78827955 115.4232612 -74 127 C-62.31515093 135.40941106 -49.21240241 138.68758097 -34.9375 136.5390625 C-22.61970883 133.8124681 -9.14125954 126.7118893 -2 116 C-1.75352142 113.07967257 -1.6231943 110.24966929 -1.58251953 107.32519531 C-1.56295197 106.43867279 -1.5433844 105.55215027 -1.52322388 104.63876343 C-1.46334641 101.70194498 -1.4205561 98.76530836 -1.3828125 95.828125 C-1.36966885 94.82461754 -1.35652519 93.82111008 -1.34298325 92.7871933 C-1.27780944 87.47537371 -1.2289051 82.16363415 -1.18994141 76.8515625 C-1.15430704 72.45649487 -1.08467284 68.06399258 -0.98486328 63.66992188 C-0.86444492 58.36227877 -0.80299336 53.05701376 -0.78359604 47.74806976 C-0.76648439 45.7272447 -0.72883727 43.7064835 -0.6701088 41.68643951 C0.07481716 30.61503245 0.07481716 30.61503245 -4.60665894 21.22763062 C-7.70791351 19.37734046 -10.57270797 18.11383499 -14 17 C-14.75265137 16.68815765 -15.50530273 16.37631531 -16.28076172 16.05502319 C-18.10818924 15.31227535 -19.99182922 14.7122253 -21.875 14.125 C-23.08929687 13.73570313 -24.30359375 13.34640625 -25.5546875 12.9453125 C-45.64435535 7.43318141 -66.51002224 11.61957668 -81 27 Z " fill="#CF754F" transform="translate(1480,86)"/>
<path d="M0 0 C15.23944956 13.73927909 22.82379824 32.0310789 25.31494141 52.16088867 C25.4027979 54.51643742 25.44551658 56.87401563 25.44775391 59.23120117 C25.44904297 60.53959961 25.45033203 61.84799805 25.45166016 63.19604492 C25.44956543 63.86780762 25.4474707 64.53957031 25.4453125 65.23168945 C25.43993696 67.28759067 25.44528909 69.34327522 25.45166016 71.39916992 C25.44972656 73.35790039 25.44972656 73.35790039 25.44775391 75.35620117 C25.44662598 76.5422998 25.44549805 77.72839844 25.44433594 78.95043945 C25.31494141 82.16088867 25.31494141 82.16088867 24.31494141 87.16088867 C-14.95505859 87.16088867 -54.22505859 87.16088867 -94.68505859 87.16088867 C-90.10437558 105.48362074 -86.03275936 119.65360726 -69.62646484 129.58666992 C-50.48511386 139.83097862 -28.70949877 137.00497048 -8.6328125 131.1015625 C-5.27601584 130.07312624 -2.11236659 128.92686128 1.06884766 127.43823242 C4.4397987 126.1117571 5.07716245 126.11623101 8.31494141 127.16088867 C9.35171919 130.73980447 10.36655139 134.32458264 11.37744141 137.91088867 C11.81926758 139.43456055 11.81926758 139.43456055 12.27001953 140.98901367 C12.54394531 141.96870117 12.81787109 142.94838867 13.10009766 143.95776367 C13.35670166 144.85849609 13.61330566 145.75922852 13.87768555 146.68725586 C14.34393652 149.32491911 14.45284129 150.7336561 13.31494141 153.16088867 C11.49584961 154.20996094 11.49584961 154.20996094 9.11572266 154.97729492 C8.24270508 155.26523926 7.3696875 155.55318359 6.47021484 155.84985352 C5.06304199 156.28225342 5.06304199 156.28225342 3.62744141 156.72338867 C2.19899902 157.1789917 2.19899902 157.1789917 0.74169922 157.64379883 C-27.18531698 166.37275982 -60.27818216 169.31296513 -87.05102539 155.5769043 C-93.88769099 151.77425168 -99.28876388 146.76441436 -104.68505859 141.16088867 C-105.34892578 140.51635742 -106.01279297 139.87182617 -106.69677734 139.20776367 C-123.31857828 122.02567731 -127.25103619 95.11426096 -127.03833008 72.19458008 C-126.28330537 46.27477112 -118.06228439 21.14693869 -99.23193359 2.76635742 C-72.59375387 -20.64174362 -27.54081923 -23.74723567 0 0 Z M-82.09521484 25.12573242 C-90.67468892 36.10830243 -93.59648287 48.5851465 -95.68505859 62.16088867 C-64.99505859 62.16088867 -34.30505859 62.16088867 -2.68505859 62.16088867 C-3.78303419 46.78923036 -5.62041922 33.36498404 -16.71630859 22.09838867 C-35.68394689 6.15457677 -65.00798736 6.83234771 -82.09521484 25.12573242 Z " fill="#CF754F" transform="translate(998.68505859375,85.839111328125)"/>
<path d="M0 0 C-1.28988408 6.50805152 -3.1377469 12.42019813 -5.625 18.5625 C-5.94984375 19.38041016 -6.2746875 20.19832031 -6.609375 21.04101562 C-7.40021796 23.02975306 -8.19924219 25.01523399 -9 27 C-12.62241407 26.43528906 -15.78367995 25.33333667 -19.16308594 23.93017578 C-39.56047834 15.55902096 -62.55965007 14.2201283 -83.3125 22.1875 C-101.35313808 30.36331156 -114.01367137 45.81567176 -121.0324707 64.05883789 C-131.34146444 92.92475383 -131.15916584 128.27368737 -118.30053711 156.3581543 C-109.56383142 174.19208701 -96.45150549 188.12800181 -77.40625 194.92578125 C-54.54451558 202.19057939 -31.07719008 197.10139852 -10 187 C-9.01 186.34 -8.02 185.68 -7 185 C-6.01 185 -5.02 185 -4 185 C-2.46129838 188.90988141 -0.94719297 192.82883608 0.5625 196.75 C1.00013672 197.86117187 1.43777344 198.97234375 1.88867188 200.1171875 C2.29794922 201.18710938 2.70722656 202.25703125 3.12890625 203.359375 C3.70233765 204.83615723 3.70233765 204.83615723 4.28735352 206.34277344 C5.03557622 209.13265212 5.2291625 210.39928296 4 213 C2.47558594 214.10913086 2.47558594 214.10913086 0.484375 214.96484375 C-0.26223389 215.28767334 -1.00884277 215.61050293 -1.77807617 215.94311523 C-2.59381104 216.27126221 -3.4095459 216.59940918 -4.25 216.9375 C-5.08958252 217.28304932 -5.92916504 217.62859863 -6.79418945 217.98461914 C-36.67441629 229.79837294 -72.17459083 231.72320923 -102 219 C-110.53178665 215.00286284 -117.99678202 210.30073469 -125 204 C-125.47824219 203.57090332 -125.95648438 203.14180664 -126.44921875 202.69970703 C-150.22682773 181.05383099 -159.8584653 149.88393349 -161.8125 118.5 C-163.40350138 83.54618171 -155.89664719 46.51906879 -131.8046875 19.9609375 C-99.6045878 -14.37250214 -41.45485148 -23.67537727 0 0 Z " fill="#CE754F" transform="translate(563,23)"/>
<path d="M0 0 C13.81811542 12.25629777 19.58157965 27.64534247 21.0390625 45.80859375 C21.17104269 49.79113635 21.1658472 53.76972901 21.15258789 57.75415039 C21.15273392 58.91613953 21.15287994 60.07812866 21.1530304 61.27532959 C21.15233755 65.08982251 21.14457469 68.90426569 21.13671875 72.71875 C21.13485234 75.37389712 21.13338025 78.02904154 21.13243103 80.68418884 C21.12933383 86.941899 21.12114233 93.19959151 21.11108154 99.45729393 C21.09987016 106.58674784 21.09439733 113.71620264 21.08938611 120.84566319 C21.07895823 135.49998374 21.06063296 150.15428523 21.0390625 164.80859375 C10.8090625 164.80859375 0.5790625 164.80859375 -9.9609375 164.80859375 C-9.9702832 161.30210205 -9.97962891 157.79561035 -9.98925781 154.18286133 C-10.02310914 142.5639008 -10.07850502 130.94509712 -10.14484024 119.32628345 C-10.18451662 112.28563406 -10.21696659 105.24509458 -10.23193359 98.2043457 C-10.24641351 91.4025535 -10.28165449 84.60111471 -10.32924652 77.79947472 C-10.34402009 75.21174785 -10.35197619 72.62397229 -10.35282135 70.03620338 C-9.91603148 45.76083677 -9.91603148 45.76083677 -20.9609375 24.80859375 C-27.89126993 18.84259329 -35.30928979 16.24492761 -44.4140625 16.49609375 C-63.86154041 18.88228736 -77.64748959 31.93927268 -89.31640625 46.59375 C-91.68134498 49.77883375 -92.08907844 51.46691554 -92.11915588 55.37698364 C-92.1289447 56.33894653 -92.13873352 57.30090942 -92.14881897 58.29202271 C-92.15457443 59.35081635 -92.1603299 60.40960999 -92.16625977 61.50048828 C-92.18110916 63.16878693 -92.18110916 63.16878693 -92.19625854 64.87078857 C-92.22794205 68.56097253 -92.25265806 72.25116938 -92.27734375 75.94140625 C-92.29790736 78.49445945 -92.31890367 81.0475092 -92.34031677 83.60055542 C-92.38994293 89.64243082 -92.43519234 95.68432379 -92.47833914 101.72624767 C-92.52769817 108.60406652 -92.58262124 115.48183739 -92.63801873 122.35960984 C-92.75186277 136.50922814 -92.85796195 150.6588924 -92.9609375 164.80859375 C-103.1909375 164.80859375 -113.4209375 164.80859375 -123.9609375 164.80859375 C-123.9609375 108.04859375 -123.9609375 51.28859375 -123.9609375 -7.19140625 C-114.0609375 -7.19140625 -104.1609375 -7.19140625 -93.9609375 -7.19140625 C-93.6309375 1.05859375 -93.3009375 9.30859375 -92.9609375 17.80859375 C-91.6615625 16.32359375 -90.3621875 14.83859375 -89.0234375 13.30859375 C-67.11493265 -10.77041312 -27.88803131 -22.27709274 0 0 Z " fill="#CE754F" transform="translate(812.9609375,81.19140625)"/>
<path d="M0 0 C7.92 0 15.84 0 24 0 C24 17.49 24 34.98 24 53 C39.51 53 55.02 53 71 53 C71 61.91 71 70.82 71 80 C55.49 80 39.98 80 24 80 C24.09091051 96.10755496 24.09091051 96.10755496 24.20898438 112.21484375 C24.26320103 118.78952857 24.31431534 125.3641301 24.34643555 131.93896484 C24.37254785 137.24295639 24.41300617 142.54666642 24.46318626 147.85048294 C24.47980147 149.86851103 24.49134889 151.88658776 24.49761391 153.90467453 C24.50731335 156.74322396 24.53544176 159.58106176 24.56762695 162.41943359 C24.56619186 163.24374878 24.56475677 164.06806396 24.5632782 164.9173584 C24.69481345 173.18252652 26.50397403 181.61272657 32 188 C39.45359855 193.72985413 46.65957051 195.84314173 56 195 C63.44544095 193.7276149 70.0556481 191.31179028 76.8203125 187.98828125 C79 187 79 187 81 187 C82.33834986 190.78991493 83.66982663 194.58220836 85 198.375 C85.3815625 199.45523438 85.763125 200.53546875 86.15625 201.6484375 C86.5171875 202.6796875 86.878125 203.7109375 87.25 204.7734375 C87.75273438 206.20308838 87.75273438 206.20308838 88.265625 207.66162109 C89 210 89 210 89 212 C70.21412716 221.22383282 49.40258203 227.23450668 28.62890625 220.96484375 C14.47281764 215.76936992 5.17011046 207.12772119 -1.1796875 193.4609375 C-5.90176106 182.32787355 -7.16810235 170.90019736 -7.11352539 158.90014648 C-7.11367142 158.04051804 -7.11381744 157.18088959 -7.1139679 156.29521179 C-7.11327778 153.48714571 -7.10552811 150.67914808 -7.09765625 147.87109375 C-7.09578886 145.91097551 -7.09436647 143.95085679 -7.09336853 141.99073792 C-7.08956862 136.85666594 -7.07976014 131.72262271 -7.06866455 126.58856201 C-7.05839588 121.33964425 -7.05385926 116.09072181 -7.04882812 110.84179688 C-7.0381354 100.56118332 -7.0205593 90.28059856 -7 80 C-16.57 80 -26.14 80 -36 80 C-36 71.09 -36 62.18 -36 53 C-26.1 53 -16.2 53 -6 53 C-5.67 48.71 -5.34 44.42 -5 40 C-4.7054337 37.07909052 -4.40065412 34.16541827 -4.0625 31.25 C-3.97750244 30.50339111 -3.89250488 29.75678223 -3.80493164 28.98754883 C-3.62795844 27.43834268 -3.44982067 25.88926912 -3.27050781 24.34033203 C-2.99722195 21.97596535 -2.72885495 19.61107414 -2.4609375 17.24609375 C-2.28674743 15.72652933 -2.11227858 14.20699684 -1.9375 12.6875 C-1.85830322 11.98850586 -1.77910645 11.28951172 -1.69750977 10.56933594 C-1.27981065 6.98755507 -0.70903363 3.54516815 0 0 Z " fill="#CF754F" transform="translate(1580,27)"/>
<path d="M0 0 C-0.67941234 5.76065111 -2.60883195 10.95115325 -4.5625 16.375 C-4.89185547 17.30183594 -5.22121094 18.22867188 -5.56054688 19.18359375 C-6.3692563 21.45735647 -7.18251358 23.7293813 -8 26 C-12.81880081 25.32355473 -16.72107662 23.98384732 -21.14453125 22.03515625 C-34.28927605 17.26996149 -52.42767627 16.26278024 -65.44140625 21.68359375 C-80.06322018 29.20657282 -89.68673876 39.17861953 -94.99609375 54.9609375 C-100.92821706 75.68079404 -99.36520172 97.51334137 -89.04296875 116.4609375 C-82.05069054 128.77897403 -73.27155178 136.17643473 -59.7890625 140.75 C-43.84777476 145.01681307 -27.86416092 140.57032939 -13.1796875 134.3046875 C-10.73514346 133.30164363 -8.55001578 132.59239998 -6 132 C-4.46407227 135.93177905 -2.94888256 139.8712275 -1.4375 143.8125 C-0.99986328 144.93205078 -0.56222656 146.05160156 -0.11132812 147.20507812 C0.29794922 148.27822266 0.70722656 149.35136719 1.12890625 150.45703125 C1.51119385 151.44678955 1.89348145 152.43654785 2.28735352 153.45629883 C3 156 3 156 2 159 C-18.98118217 170.8314937 -48.80269173 174.09768424 -71.94921875 167.96484375 C-72.95597656 167.64644531 -73.96273438 167.32804688 -75 167 C-76.07894531 166.67128906 -77.15789062 166.34257812 -78.26953125 166.00390625 C-97.96023959 159.25347362 -112.3833092 144.45740192 -121.4609375 126.03515625 C-133.36790332 99.15427888 -133.69604434 67.38748342 -123.1875 40.0625 C-114.77715943 20.34025136 -99.39157854 3.70564577 -79.390625 -4.4765625 C-52.96411199 -13.85194367 -25.29826782 -11.16770381 0 0 Z " fill="#CE754F" transform="translate(1816,80)"/>
<path d="M0 0 C9.9 0 19.8 0 30 0 C30 56.76 30 113.52 30 172 C20.1 172 10.2 172 0 172 C0 115.24 0 58.48 0 0 Z " fill="#CF754F" transform="translate(607,74)"/>
<path d="M0 0 C5.2997968 0.83427679 8.5329171 3.23747325 12.80859375 6.359375 C14.05648682 7.2419397 14.05648682 7.2419397 15.32958984 8.14233398 C21.27071732 12.37021927 27.12224037 16.72345033 32.92456055 21.13964844 C38.60167857 25.45485866 44.41567992 29.55913916 50.28955078 33.60180664 C58.99491281 39.6508529 58.99491281 39.6508529 60.93359375 43.984375 C60.84058979 47.89054112 58.51347146 49.96252075 55.87109375 52.609375 C53.4094673 54.61817985 50.81630376 56.3956984 48.18359375 58.171875 C46.66203382 59.22160385 45.14122538 60.27242262 43.62109375 61.32421875 C42.83863281 61.86288574 42.05617187 62.40155273 41.25 62.95654297 C37.35573915 65.66222297 33.52068026 68.4484886 29.68359375 71.234375 C28.18899932 72.31667867 26.69421025 73.39871361 25.19921875 74.48046875 C24.11737305 75.26333252 24.11737305 75.26333252 23.01367188 76.06201172 C19.66070271 78.48351565 16.29869971 80.89227544 12.93359375 83.296875 C12.36036377 83.70695801 11.78713379 84.11704102 11.1965332 84.53955078 C3.15113571 90.28223664 3.15113571 90.28223664 -3.12890625 89.609375 C-5.79505386 87.19526897 -6.12110113 85.68168259 -6.50985718 82.0802002 C-6.52764155 80.64797622 -6.52889561 79.21548886 -6.51708984 77.78320312 C-6.5223468 76.99900497 -6.52760376 76.21480682 -6.53302002 75.40684509 C-6.54621027 72.8179017 -6.53748559 70.22957451 -6.52734375 67.640625 C-6.52936477 65.83988324 -6.53227644 64.03914228 -6.53604126 62.23840332 C-6.54046328 58.46565961 -6.53403749 54.69312908 -6.52001953 50.92041016 C-6.50292768 46.08474 -6.51276952 41.24956937 -6.53073692 36.41391754 C-6.54157805 32.69586423 -6.53812691 28.97792932 -6.53035355 25.25987244 C-6.52835245 23.47688233 -6.53080765 21.69388148 -6.53779221 19.91090393 C-6.54541215 17.41882862 -6.53379534 14.92756197 -6.51708984 12.43554688 C-6.52316254 11.69880234 -6.52923523 10.9620578 -6.53549194 10.20298767 C-6.49693713 7.09806264 -6.29224436 4.91068334 -4.80020142 2.1583252 C-3.12890625 0.609375 -3.12890625 0.609375 0 0 Z " fill="#D4A086" transform="translate(148.12890625,85.390625)"/>
<path d="M0 0 C5.05098744 5.0716882 6.6646394 8.94793929 6.9375 16.125 C6.76464283 22.72363439 5.58891678 27.36607431 1.109375 32.2734375 C-4.04425875 36.96595665 -9.43721433 38.20397303 -16.203125 37.98828125 C-23.45259513 37.23621037 -27.40319977 34.39969329 -32.0546875 28.8828125 C-36.13668934 22.85910167 -36.24310968 16.82330322 -35.5 9.75 C-33.60828125 3.42041131 -30.14196086 0.05657521 -24.625 -3.4375 C-16.32978988 -6.60919799 -6.87940982 -5.72650689 0 0 Z " fill="#CF754F" transform="translate(636.5,8.25)"/>
</svg>
